#N canvas 853 19 948 963 10;
#X obj 122 89 import mrpeach;
#X text 120 21 SonarTheremin Liam Corley PD Patch to drive output of
second sonar sensor;
#X obj 125 132 udpreceive 9001;
#X obj 124 179 unpackOSC;
#X obj 45 325 print;
#X obj 137 232 routeOSC /freq;
#X obj 413 207 Gem;
#X obj 528 207 gemwin, f 7;
#X msg 531 87 create;
#X msg 582 116 destroy;
#X msg 602 171 1;
#X msg 627 218 0;
#X obj 275 310 gemhead;
#X obj 277 347 part_head;
#X obj 275 508 part_killold;
#X floatatom 397 328 5 0 0 0 - - -, f 5;
#X obj 277 404 part_source 20;
#X obj 276 449 part_velocity sphere;
#X obj 281 680 part_render;
#X obj 281 719 sphere;
#X floatatom 102 663 5 0 0 0 - - -, f 5;
#X floatatom 120 615 5 0 0 0 - - -, f 5;
#X obj 126 416 draw line;
#X obj 177 462 draw point;
#X obj 279 601 part_color;
#X obj 140 291 * 0.01;
#X text 394 356 number of particles per frame;
#X text 526 246 GEM window creation;
#X connect 2 0 3 0;
#X connect 3 0 4 0;
#X connect 3 0 5 0;
#X connect 5 0 25 0;
#X connect 8 0 7 0;
#X connect 9 0 7 0;
#X connect 10 0 7 0;
#X connect 11 0 7 0;
#X connect 12 0 13 0;
#X connect 13 0 16 0;
#X connect 14 0 24 0;
#X connect 15 0 16 1;
#X connect 16 0 17 0;
#X connect 17 0 14 0;
#X connect 18 0 19 0;
#X connect 20 0 19 2;
#X connect 21 0 19 1;
#X connect 22 0 23 0;
#X connect 23 0 18 0;
#X connect 24 0 18 0;
#X connect 25 0 17 2;
